<?xml version="1.0" encoding="UTF-8"?><svg id="Layer_1" xmlns="http://www.w3.org/2000/svg" viewBox="0 0 298 58.69"><g><path id="Union_17" d="M14.16,54.27c-.29-.05-.53-.23-.66-.49-.23-.34-.29-.76-.16-1.15l.33-.82-.16-2.47c-.33,.16-.66,.33-1.48,.66-.66,.16-1.32,.49-1.97,.66-.99,.16-1.81,.33-2.8,.49h-1.65c-.67-.03-1.33-.14-1.97-.33-.73-.25-1.4-.64-1.97-1.15-.67-.47-1.14-1.17-1.31-1.97-.28-.73-.39-1.52-.33-2.3,.04-.72,.15-1.44,.33-2.14,.33-1.5,.88-2.94,1.64-4.28,1.46-2.51,3.23-4.83,5.26-6.91,1.68-1.72,3.62-3.16,5.76-4.28,1.46-.85,3.09-1.35,4.77-1.48h.33c-.76-1.3-1.37-2.67-1.81-4.11-.65-1.78-.34-3.77,.82-5.26,1.75-2.23,4.4-3.56,7.24-3.62h.49c4.42-.21,8.17,3.21,8.38,7.63,0,.09,0,.18,0,.26,.17,2.76-1.07,5.42-3.29,7.07-1.41,.98-3.06,1.55-4.77,1.64h-.49c-2.14,.06-4.19-.85-5.59-2.47-.39-.02-.78,.04-1.15,.16-1.44,.36-2.82,.91-4.11,1.65-1.94,1.12-3.71,2.5-5.26,4.11-1.92,1.87-3.53,4.04-4.77,6.42-.6,1.21-1.1,2.48-1.48,3.78-.37,1.11-.43,2.31-.16,3.45,.12,.43,.34,.83,.66,1.15,.36,.25,.75,.47,1.15,.66,.69,.22,1.41,.33,2.14,.33h.66c.83,0,1.66-.12,2.47-.33,.56-.01,1.12-.12,1.64-.33l.49-.16c.99-.16,1.32-.33,1.48-.33v-1.81c-.33,0-.49,.16-.82,.16-.54,.16-1.09,.27-1.64,.33-.49,0-.66-.33-.66-.49,0-.49,.16-.66,1.81-1.32l4.11-1.65,1.15-.49,.66-.66,.33-.33c-.36-.31-.74-.59-1.15-.82l-.66-.33-.33-.16c-.33,0-.49-.16-.82-.16-.43-.13-.87-.18-1.32-.16-.28,.04-.55,.09-.82,.16h-.33l-.49-.33c-.33,.16-.49,.49-.82,.66l-1.15,.82-1.15,1.15-.33,.49-.49,.99v.82c.17,.18,.29,.41,.33,.66l.49,.66v.16c.09,0,.16,.07,.16,.16h0c0,.17,.16,.17,.16,.33,.15,.28,.08,.63-.16,.82h-.32c-.16,0-.49-.33-.49-.33l-.16-.16h-.17l-.16-.16-.66-.66v-.16l-.66-1.32v-1.32q.16-.16,.16-.33c.16-.33,.33-.82,.49-1.15l.49-.66c.02-.13,.07-.24,.16-.33l.66-.66,.82-.66c0-.09,.07-.16,.16-.16h0l.99-.66c.78-.67,1.88-.79,2.8-.32v.16c.09-.09,.2-.15,.33-.16v-2.8l.16-.16v-.16l.33-.16c-.31-.09-.6-.26-.82-.49v-.49c.16-.49,.49-.33,1.15-.33,.55-.01,1.1,.04,1.64,.16l3.29,.33h1.98l3.12-.16h.33c.45,.14,.89,.3,1.32,.49l.82,.33c0,.09,.07,.16,.16,.16h0c1.81,1.15,2.31,1.48,2.14,1.97l.16-.33c0-.33,.49-.49,1.48-1.15l1.15-.66c.33-.16,.49-.33,.82-.33s.66-.16,.99-.16h.33c.82-.16,1.64-.33,2.63-.49h.49c.66-.16,1.48-.16,2.14-.33l.82-.16c.49,0,.99-.16,1.32-.16h.16q.16-.16,.33-.16h1.15c.41-.2,.86-.31,1.32-.33l.49,.33c.16,.33,0,.49-.16,.66l.49,.33v.33l.33,.16,.49,8.39c.47,.15,.91,.37,1.32,.66,.92,.53,1.71,1.26,2.31,2.14,.37,.5,.65,1.05,.82,1.65,.18,.3,.3,.64,.33,.99v1.32l-.16,.49c-.16,.16-.16,.33-.33,.49h.66c.66-.16,1.48-.16,2.63-.33,1.15-.33,2.31-.49,3.29-.82,1.25-.45,2.46-1,3.62-1.64,1.25-.81,2.36-1.81,3.29-2.96,1.06-1.25,1.84-2.71,2.31-4.28,.61-1.69,.88-3.47,.82-5.26-.06-3.47-.84-6.89-2.31-10.03-1.24-2.56-2.97-4.86-5.1-6.74-.85-.72-1.79-1.32-2.8-1.81-.73-.37-1.51-.65-2.31-.82-.49,0-.99-.16-1.32-.16-.62,1.51-1.58,2.86-2.8,3.95-1.93,1.52-4.29,2.38-6.74,2.47h-.49c-5.26,0-8.88-3.45-10.85-10.69-.74-2.48-.26-5.17,1.32-7.23C35.61,1.84,38.91,.16,42.45,0h.66c5.85-.14,10.71,4.5,10.85,10.35,0,.11,0,.22,0,.34,.14,1.27,.03,2.56-.33,3.78h1.15c.96,.06,1.91,.28,2.8,.66,1.21,.37,2.33,.99,3.29,1.81,2.48,2.01,4.51,4.54,5.93,7.4,.85,1.62,1.52,3.33,1.97,5.1,.5,1.88,.78,3.81,.82,5.76,.07,2-.21,4-.82,5.91-.51,1.87-1.4,3.6-2.63,5.1-1.03,1.44-2.38,2.62-3.95,3.45-1.35,.72-2.79,1.27-4.28,1.64-1.19,.31-2.4,.53-3.62,.66-.65,.14-1.31,.19-1.97,.16h-.82c-.66,0-1.15-.16-1.64-.16-.45,.48-.95,.92-1.48,1.32-.46,.29-.96,.51-1.48,.66-.42,.15-.87,.2-1.32,.16h-.16c-.99-.04-1.95-.33-2.8-.82l-.49-.16c0,.16-.16,.16-.49,.16-1.88-.17-3.74-.44-5.59-.82-1.97-.49-3.78-.82-4.77-1.15l-.33,.33-1.64,.16-.33-.16h-.33l-3.12,.49c-1.97,.33-4.6,.66-7.4,1.15-.66,.16-1.48,.33-2.14,.49-.13,.13-.31,.19-.49,.16h-.16l-.33-.49,.16,.49-.33,.16c-.13,.13-.31,.19-.49,.16h-.16Zm22.53-5.59c.9,.34,1.78,.72,2.63,1.15l3.78,1.81c.61,.32,1.29,.49,1.97,.49,.7,.07,1.39-.1,1.97-.49,.52-.35,.96-.8,1.32-1.32,.16-.33,.33-.49,.49-.82,.09-.09,.15-.2,.16-.33l.16-.33v-.16c.09,0,.16-.07,.16-.16h0v-.17c0-.23-.05-.46-.16-.66-.15-.47-.37-.91-.66-1.32-.37-.75-.94-1.37-1.64-1.82-.46-.33-.96-.61-1.48-.82h-.33c-.33,.03-.63-.21-.66-.54,0-.04,0-.08,0-.12,.01-.13,.07-.24,.16-.33l-.49-7.4-14.47,3.3,1.15,11.35c1.72,.12,3.43,.39,5.1,.82,.66,.16,1.48,.33,2.14,.49-.82-.49-1.64-.99-2.14-1.32-.82-.66-.99-.82-.99-.99l.16-.49c.11-.12,.26-.18,.41-.18,.42,.06,.84,.18,1.23,.34Zm-22.53-10.53h.82c.34-.03,.68,.03,.99,.16,.16,0,.33,.16,.49,.16l.66,.33,.33,.16c.58,.27,1.13,.6,1.64,.99l.49,.49c.16,0,.33,.16,.33,.49v.66c0,.16-.16,.16-.16,.33s-.16,.33-.33,.49l-.49,.49c-.42,.29-.8,.62-1.15,.99l-1.32,.99-1.32,.49c-.33,.16-.66,.16-.99,.33,.27,1.08,.43,2.18,.49,3.29,0,.49,.16,.99,.16,1.64l.16,.99v.33h.16c.66-.16,1.48-.33,2.31-.49,2.63-.33,5.43-.66,8.22-.99,.82-.13,1.64-.18,2.47-.16l-1.32-11.51-12.66-2.14v1.48Zm12.66-.82l-.99-.49h-.16c0,.16-.16,0-.16,0l-1.15-.49c-.16-.16-.49-.16-.66-.33h-1.15c-.59,.14-1.2,.2-1.81,.16l6.09,1.15Zm-7.73-15.45c.49,4.6,2.14,6.25,5.91,6.25,1.42,.09,2.84-.19,4.11-.82,1.48-.99,1.64-2.63,.99-5.91,0-.66-1.32-6.25-5.43-6.25h-.33c-4.1,.65-5.75,2.62-5.25,6.74Zm16.77-10.69c.66,6.41,2.63,8.88,7.73,8.88h.16c2.8,0,4.6-.49,5.76-1.48,1.48-1.32,1.81-3.78,.99-7.89-.16-.99-1.81-8.88-7.24-8.88h-.49c-5.43,.82-7.57,3.62-6.91,9.37Zm1.48,37.33c-.57,.09-1.15-.03-1.64-.33l-.16-.49c0-.49,.49-.49,1.15-.66,.16,0,.33-.16,.66-.16,.49-.16,1.81-.33,3.45-.82,1.17-.24,2.33-.57,3.45-.99,.49-.16,.66-.33,.82-.33l.16-.16c.16,0,.33-.16,.49-.16h.16c.33,0,.49,.33,.49,.66-.16,.33-.16,.49-.33,.66-.33,.16-.66,.49-1.15,.82-1.09,.59-2.25,1.03-3.45,1.32-1.23,.36-2.5,.59-3.78,.66h-.33Z" fill="#0675c1"/><path d="M84.14,50.57h1.89c-.88,2.32-3.19,3.77-5.52,3.62-3.18,0-5.95-2.46-5.95-5.8v-.44c-.13-3.19,2.47-5.95,5.66-6.09h.29c2.47-.13,4.64,1.32,5.52,3.63h-1.89c-.59-1.45-2.17-2.32-3.63-2.32-2.46,0-4.35,1.88-4.35,4.35v.43c-.15,2.46,1.6,4.5,3.92,4.79h.43c1.6,.15,3.05-.72,3.63-2.17Z" fill="#0675c1"/><path d="M92.4,44.48c-2.61,0-4.64,2.17-4.64,4.78,0,.15,0,.29-.15,.44,0,2.61,2.18,4.5,4.64,4.5h.44c2.61-.15,4.64-2.32,4.5-4.94v-.13c0-2.62-2.17-4.64-4.79-4.64Zm3.19,5.07c0,1.89-1.45,3.19-3.19,3.19h-.43c-1.6-.29-2.9-1.74-2.62-3.49v-.57c0-1.74,1.45-3.05,3.19-3.05h.29c1.74,.15,2.9,1.74,2.76,3.49v.43Z" fill="#0675c1"/><path d="M107.93,47.95v6.09h-1.6v-5.36c0-1.89-1.01-2.9-2.61-2.9s-2.76,1.01-2.76,3.05v5.22h-1.61v-9.43h1.61v1.32c.72-1.02,1.88-1.6,3.04-1.45,2.04-.15,3.78,1.45,3.92,3.47Z" fill="#0675c1"/><path d="M118.8,47.95v6.09h-1.59v-5.36c0-1.89-1.02-2.9-2.62-2.9s-2.76,1.01-2.76,3.05v5.22h-1.6v-9.43h1.6v1.32c.73-1.02,1.89-1.6,3.05-1.45,2.04-.15,3.78,1.45,3.91,3.47Z" fill="#0675c1"/><path d="M129.98,48.53c-.15-2.32-2.18-4.2-4.5-4.06h-.57c-2.47,.13-4.22,2.32-4.07,4.78v.59c0,2.46,2.18,4.5,4.64,4.35,2.04,.15,3.77-1.16,4.35-3.05h-1.74c-.29,1.16-1.45,1.89-2.61,1.74h-.15c-1.6,0-2.9-1.3-2.9-2.9h7.54v-1.45Zm-7.54,.15c0-1.6,1.3-2.9,3.05-2.9h.29c1.45,.15,2.61,1.3,2.61,2.9h-5.95Z" fill="#0675c1"/><path d="M140.42,51c-.44,2.04-2.33,3.34-4.35,3.19-2.47,0-4.5-1.89-4.64-4.35v-.59c-.15-2.46,1.6-4.64,4.06-4.78h.44c2.04-.15,3.91,1.16,4.35,3.18h-1.74c-.29-1.16-1.45-1.88-2.61-1.88-1.74,0-3.05,1.16-3.05,3.47s1.3,3.63,3.05,3.63c1.16,.15,2.31-.73,2.61-1.89h1.89Z" fill="#0675c1"/><polygon points="150.43 51.87 148.54 56.5 147.38 56.5 148.68 51.87 150.43 51.87" fill="#0675c1"/><path d="M144.48,45.93v5.51c0,.87,.29,1.3,1.3,1.3h1.17v1.3h-1.45c-1.74,0-2.62-.72-2.62-2.61v-5.51h-1.16v-1.32h1.16v-2.32h1.6v2.32h2.47v1.32h-2.47Z" fill="#0675c1"/><polygon points="162.47 52.74 162.47 54.04 156.67 54.04 156.67 42 158.26 42 158.26 52.74 162.47 52.74" fill="#0675c1"/><path d="M172.77,48.53c-.15-2.32-2.17-4.2-4.5-4.06h-.57c-2.47,.13-4.22,2.32-4.07,4.78v.59c0,2.46,2.18,4.5,4.64,4.35,2.04,.15,3.77-1.16,4.35-3.05h-1.74c-.28,1.16-1.45,1.89-2.61,1.74h-.15c-1.6,0-2.9-1.3-2.9-2.9h7.54v-1.45Zm-7.54,.15c0-1.6,1.3-2.9,3.05-2.9h.29c1.45,.15,2.61,1.3,2.61,2.9h-5.95Z" fill="#0675c1"/><path d="M182.2,44.61v1.74c-.73-1.16-2.04-1.88-3.49-1.88h-.44c-2.46,.13-4.21,2.32-4.06,4.78v.29c0,2.61,2.04,4.64,4.5,4.64,1.45,.15,2.76-.73,3.49-1.89v1.74h1.6v-9.43h-1.6Zm0,5.23c-.15,1.74-1.74,3.05-3.49,2.9-1.74-.15-3.05-1.74-2.9-3.49v-.28c0-1.74,1.45-3.19,3.19-3.19h.28c1.74,.15,3.06,1.74,2.91,3.47v.59Z" fill="#0675c1"/><path d="M191.05,44.48v1.6h-.44c-1.45,0-2.61,.72-2.61,2.9v5.07h-1.6v-9.43h1.6v1.61c.57-1.17,1.74-1.74,3.05-1.74Z" fill="#0675c1"/><path d="M201.35,47.95v6.09h-1.6v-5.36c0-1.89-1.02-2.9-2.62-2.9s-2.75,1.01-2.75,3.05v5.22h-1.58v-9.43h1.58v1.32c.73-1.02,1.89-1.6,3.05-1.45,2.04-.15,3.78,1.45,3.92,3.47Z" fill="#0675c1"/><path d="M216.86,51.14c.29-.29,.58-.57,.73-1.01l1.45-2.47h-1.74l-1.16,2.04c-.15,.15-.15,.29-.29,.44l-3.63-3.63c-.87-.87-1.3-1.45-1.3-2.17v-.15c.15-.88,.88-1.45,1.6-1.3h.29c.73,0,1.3,.72,1.16,1.45h1.6v-.44c-.15-1.45-1.45-2.46-2.9-2.32h-.29c-1.6,0-2.9,1.16-2.9,2.75,0,1.01,.44,1.89,1.02,2.46-1.6,.58-2.77,2.04-2.77,3.78,0,2.17,1.74,3.62,4.22,3.47,1.44,.15,3.05-.58,4.06-1.74l1.6,1.6h2.02l-2.75-2.75Zm-4.92,1.74h-.15c-1.3,0-2.47-1.01-2.47-2.32s.73-2.18,2.18-2.62l3.49,3.49c-.73,.87-1.89,1.45-3.05,1.45Z" fill="#0675c1"/><polygon points="227.16 43.31 227.16 47.38 231.51 47.38 231.51 48.68 227.16 48.68 227.16 52.74 232.1 52.74 232.1 54.04 225.71 54.04 225.71 42 232.1 42 232.1 43.31 227.16 43.31" fill="#0675c1"/><polygon points="238.19 49.25 241.24 54.04 239.49 54.04 237.31 50.57 235.14 54.04 233.55 54.04 236.59 49.4 233.55 44.61 235.29 44.61 237.46 48.1 239.64 44.61 241.24 44.61 238.19 49.25" fill="#0675c1"/><path d="M247.9,44.48c-1.45,0-2.75,.72-3.47,1.88v-1.74h-1.61v13.93l1.61,.15v-6.24c.72,1.17,2.02,1.89,3.47,1.89h.29c2.61-.29,4.35-2.46,4.2-4.94v-.43c0-2.47-2.04-4.5-4.5-4.5Zm2.75,5.36c-.15,1.74-1.73,3.05-3.47,2.9-1.74-.15-3.05-1.74-2.9-3.49v-.28c0-1.74,1.45-3.19,3.18-3.19h.29c1.74,.15,3.05,1.74,2.9,3.47v.59Z" fill="#0675c1"/><rect x="254.44" y="41.28" width="1.6" height="12.76" fill="#0675c1"/><path d="M262.85,44.48c-2.61,0-4.79,2.17-4.79,4.78v.44c0,2.61,2.18,4.64,4.64,4.5h.44c2.52-.13,4.5-2.17,4.5-4.67v-.27c0-2.61-2.18-4.78-4.79-4.78Zm3.05,5.07c0,1.89-1.45,3.19-3.19,3.19h-.44c-1.6-.29-2.89-1.74-2.61-3.49v-.57c0-1.74,1.45-3.05,3.19-3.05h.29c1.74,.15,2.9,1.74,2.75,3.49v.43Z" fill="#0675c1"/><path d="M274.3,44.48v1.6h-.43c-1.45,0-2.62,.72-2.62,2.9v5.07h-1.59v-9.43h1.59v1.61c.58-1.17,1.74-1.74,3.05-1.74Z" fill="#0675c1"/><path d="M284.61,48.53c-.16-2.32-2.18-4.2-4.5-4.06h-.58c-2.46,.13-4.21,2.32-4.06,4.78v.59c0,2.46,2.17,4.5,4.64,4.35,2.02,.15,3.77-1.16,4.34-3.05h-1.73c-.29,1.16-1.46,1.89-2.61,1.74h-.15c-1.61,0-2.9-1.3-2.9-2.9h7.54v-1.45Zm-7.54,.15c0-1.74,1.45-2.9,3.05-2.9h.28c1.45,.15,2.61,1.3,2.61,2.9h-5.94Z" fill="#0675c1"/><path d="M284.61,26.92c0,4.86-3.78,7.28-7.89,7.28-3.48,.15-6.97-1.67-8.95-4.7l2.57-1.97c1.22,2.43,3.8,3.8,6.37,3.8,2.57,.15,4.85-1.67,5.01-4.24,0-3.19-3.3-3.68-6.6-4.47-3.3-.8-6.6-1.9-6.6-6.31s3.95-6.66,7.59-6.66,6.36,1.36,7.74,4.4l-2.59,1.52c-.9-2.12-2.88-3.34-5.15-3.34-2.13,0-4.71,1.36-4.71,3.8,0,6.22,13.2,1.36,13.2,10.92Z" fill="#0675c1"/><path d="M267.03,9.94l-.31,3.03c-.31-.15-.76-.15-1.07-.15-5.01,0-7.28,3.63-7.28,8.18v12.74l-3.03-.15V16.91c0-1.67-.15-5.3-.15-6.52h2.88c0,1.67,.15,3.64,.15,4.1,1.21-2.88,3.95-4.7,7.14-4.7,.45,0,1.06,.15,1.67,.15Z" fill="#0675c1"/><path d="M238.36,9.78c-6.98,0-11.84,5.15-11.84,12.28s5.02,12.28,11.84,12.28,11.83-5.16,11.83-12.28-5.15-12.28-11.83-12.28Zm-.15,21.83c-5.3,0-8.79-4.38-8.79-9.54s3.49-9.56,8.79-9.56,8.79,4.4,8.79,9.56-3.48,9.54-8.79,9.54Z" fill="#0675c1"/><path d="M223.79,33.29c-1.21,.45-2.42,.75-3.79,.91-4.1,.15-5.61-2.42-5.61-5.91V13.11h-4.86v-2.87h4.86V3.57h2.88v6.68h6.37v2.73h-6.37v15.16c-.15,1.67,.9,3.03,2.57,3.34h.46c1.21,0,2.27-.31,3.34-.92l.14,2.74Z" fill="#0675c1"/><path d="M205.59,33.59h-2.88c0-1.66-.15-3.63-.15-4.09h-.15c-1.36,2.88-4.4,4.7-7.58,4.7-6.66,0-8.35-5.01-8.35-10.02V10.24h2.89v13.65c0,3.78,1.06,7.43,5.45,7.43s7.58-3.19,7.58-9.56V10.24h2.88V27.08c0,.83,.08,2.15,.15,3.43,.08,1.27,.15,2.49,.15,3.08Z" fill="#0675c1"/><path d="M183,33.29c-1.22,.45-2.43,.75-3.8,.91-4.09,.15-5.61-2.42-5.61-5.91V13.11h-4.85v-2.87h4.85V3.57h2.88v6.68h6.37v2.73h-6.37v15.16c-.15,1.67,.92,3.03,2.57,3.34h.46c1.21,0,2.27-.31,3.34-.92l.15,2.74Z" fill="#0675c1"/><path d="M166.32,20.7c0-5.47-3.64-10.92-10.32-10.92s-11.07,5.3-11.07,12.28,4.41,12.28,11.23,12.44c3.94,.15,7.58-1.67,9.71-5.01l-2.27-1.97c-1.53,2.57-4.41,4.09-7.44,4.09-6.82,0-8.49-6.21-8.49-8.79h18.66v-2.12Zm-18.5-.76c0-1.21,1.81-7.58,8.18-7.58,4.09,0,7.59,3.34,7.59,7.58h-15.78Z" fill="#0675c1"/><path d="M142.96,9.94l-.3,3.03c-.31-.15-.77-.15-1.07-.15-5,0-7.28,3.63-7.28,8.18v12.74l-2.88-.15V16.91c0-.84-.08-2.17-.15-3.43-.08-1.27-.15-2.49-.15-3.1h2.89c0,1.67,.15,3.64,.15,4.1,1.21-2.88,3.94-4.7,7.12-4.7,.45,0,.9,.15,1.67,.15Z" fill="#0675c1"/><path d="M124.51,28.81c-.13-1.63-.2-3.25-.2-4.92v-5.77c0-5.91-3.49-8.49-8.81-8.49-3.17,0-6.22,1.21-8.49,3.34l1.82,1.96c1.81-1.67,4.24-2.57,6.66-2.57,3.49,0,6.23,1.82,6.23,5.76v1.36h-3.34c-4.4,0-12.29,.61-12.29,7.75,0,5,4.09,7.12,7.89,7.12s6.21-1.52,7.74-4.4h.29c0,1.21,.15,2.57,.31,3.78h2.73c-.23-1.67-.41-3.29-.55-4.93Zm-2.64-5.22c0,3.78-1.52,7.89-7.74,7.89-2.42,0-5-1.52-5-4.4,0-3.95,4.7-5.16,9.54-5.01h3.19v1.52Z" fill="#0675c1"/><path d="M98.96,26.81l2.63,2.45c-3.01,3.3-6.87,5.11-10.92,5.11-9.34,0-16.12-7.05-16.12-16.76S81.18,.85,90.67,.85c4.11,0,8.14,1.85,11.11,5.09l-2.82,2.29c-2.02-2.53-5.02-4.08-8.3-4.29-7.19,0-12.61,5.88-12.61,13.68s5.3,13.68,12.63,13.67c3.3-.21,6.29-1.83,8.27-4.47Z" fill="#0675c1"/></g><text transform="translate(283.68 9.92)" fill="#0675c1" font-family="ArialMT, Arial" font-size="9.92"><tspan x="0" y="0">TM</tspan></text></svg>